# xmcd
# Copyright (C) 1995-1998 Ti Kan
#
# Track frame offsets:
#       150
#       18252
#       31459
#       50679
#       81223
#       122135
#       140634
#
# Disc length: 2063 seconds
#
# Revision: 0
# Processed by: cddbd v1.5.2PL0 Copyright (c) Steve Scherf et al.
# Submitted via: CD-Import v1.0
#
DISCID=5c080d07
DTITLE=Pontiak - Sun On Sun
DYEAR=2007
DGENRE=
TTITLE0=Shell Skull
TTITLE1=Swell
TTITLE2=White Hands
TTITLE3=White Mice
TTITLE4=Sun On Sun
TTITLE5=Tell Me About
TTITLE6=The Brush Burned Fast
EXTD=
EXTT0=
EXTT1=
EXTT2=
EXTT3=
EXTT4=
EXTT5=
EXTT6=
PLAYORDER=
